P2
# comentario: imagem criada manualmente
10 10
8
1 4 3 7 5 7 8 3 2 4
1 4 3 7 5 7 8 3 2 5
1 3 3 7 5 7 8 3 2 6
1 3 3 7 5 7 8 3 2 7
1 3 3 7 5 7 8 3 2 8
1 4 2 7 6 7 8 3 2 7
1 4 2 7 6 7 3 3 2 2
1 4 3 7 5 7 8 3 2 3
1 4 3 7 5 7 8 3 2 1
1 4 3 7 5 7 8 3 2 0